<svg width="16" height="17" viewBox="0 0 16 17" fill="none" xmlns="http://www.w3.org/2000/svg">
<path d="M11.3335 6.77776H12.6668C14.0002 6.77776 14.6668 6.11109 14.6668 4.77776V3.44443C14.6668 2.11109 14.0002 1.44443 12.6668 1.44443H11.3335C10.0002 1.44443 9.3335 2.11109 9.3335 3.44443V4.77776C9.3335 6.11109 10.0002 6.77776 11.3335 6.77776Z" stroke="currentColor" stroke-miterlimit="10" stroke-linecap="round" stroke-linejoin="round"/>
<path d="M3.3335 14.7778H4.66683C6.00016 14.7778 6.66683 14.1111 6.66683 12.7778V11.4444C6.66683 10.1111 6.00016 9.44443 4.66683 9.44443H3.3335C2.00016 9.44443 1.3335 10.1111 1.3335 11.4444V12.7778C1.3335 14.1111 2.00016 14.7778 3.3335 14.7778Z" stroke="currentColor" stroke-miterlimit="10" stroke-linecap="round" stroke-linejoin="round"/>
<path d="M4.00016 6.77776C5.47292 6.77776 6.66683 5.58385 6.66683 4.11109C6.66683 2.63833 5.47292 1.44443 4.00016 1.44443C2.5274 1.44443 1.3335 2.63833 1.3335 4.11109C1.3335 5.58385 2.5274 6.77776 4.00016 6.77776Z" stroke="#37B76C" stroke-miterlimit="10" stroke-linecap="round" stroke-linejoin="round"/>
<path d="M12.0002 14.7778C13.4729 14.7778 14.6668 13.5839 14.6668 12.1111C14.6668 10.6383 13.4729 9.44443 12.0002 9.44443C10.5274 9.44443 9.3335 10.6383 9.3335 12.1111C9.3335 13.5839 10.5274 14.7778 12.0002 14.7778Z" stroke="#37B76C" stroke-miterlimit="10" stroke-linecap="round" stroke-linejoin="round"/>
</svg>
