<svg width="20" height="20" viewBox="0 0 20 20" fill="none" xmlns="http://www.w3.org/2000/svg">
<path d="M9.16675 3.33333H5.66675C4.26662 3.33333 3.56655 3.33333 3.03177 3.60582C2.56137 3.8455 2.17892 4.22795 1.93923 4.69836C1.66675 5.23314 1.66675 5.9332 1.66675 7.33333V14.3333C1.66675 15.7335 1.66675 16.4335 1.93923 16.9683C2.17892 17.4387 2.56137 17.8212 3.03177 18.0609C3.56655 18.3333 4.26662 18.3333 5.66675 18.3333H12.6667C14.0669 18.3333 14.7669 18.3333 15.3017 18.0609C15.7721 17.8212 16.1546 17.4387 16.3943 16.9683C16.6667 16.4335 16.6667 15.7335 16.6667 14.3333V10.8333M6.66673 13.3333H8.06218C8.46983 13.3333 8.67366 13.3333 8.86547 13.2873C9.03553 13.2465 9.1981 13.1791 9.34722 13.0877C9.51542 12.9847 9.65954 12.8405 9.9478 12.5523L17.9167 4.58334C18.6071 3.89298 18.6071 2.77369 17.9167 2.08333C17.2264 1.39298 16.1071 1.39298 15.4167 2.08333L7.44778 10.0523C7.15952 10.3405 7.0154 10.4847 6.91233 10.6529C6.82094 10.802 6.7536 10.9646 6.71278 11.1346C6.66673 11.3264 6.66673 11.5303 6.66673 11.9379V13.3333Z" stroke="#30323D" stroke-width="1.66667" stroke-linecap="round" stroke-linejoin="round"/>
</svg>

