<svg width="16" height="17" viewBox="0 0 16 17" fill="none" xmlns="http://www.w3.org/2000/svg">
<path d="M14.6668 8.77776V6.11109C14.6668 2.77776 13.3335 1.44443 10.0002 1.44443H6.00016C2.66683 1.44443 1.3335 2.77776 1.3335 6.11109V10.1111C1.3335 13.4444 2.66683 14.7778 6.00016 14.7778H8.66683" stroke="currentColor" stroke-width="1.21428" stroke-linecap="round" stroke-linejoin="round"/>
<path d="M4.88672 9.7711L6.47339 7.7111C6.70006 7.41776 7.12006 7.36443 7.41339 7.5911L8.6334 8.5511C8.92674 8.77777 9.34672 8.72444 9.57338 8.43777L11.1134 6.4511" stroke="currentColor" stroke-width="1.21428" stroke-linecap="round" stroke-linejoin="round"/>
<path d="M12.9867 10.6577L13.1733 11.0377C13.2666 11.2244 13.5 11.3977 13.7066 11.4377L13.96 11.4777C14.72 11.6044 14.9 12.1644 14.3533 12.7177L14.12 12.9511C13.9666 13.1111 13.88 13.4177 13.9267 13.6311L13.96 13.7711C14.1666 14.6911 13.68 15.0444 12.88 14.5644L12.7066 14.4644C12.5 14.3444 12.1666 14.3444 11.96 14.4644L11.7866 14.5644C10.98 15.0511 10.4933 14.6911 10.7066 13.7711L10.74 13.6311C10.7866 13.4177 10.7 13.1111 10.5466 12.9511L10.3133 12.7177C9.76664 12.1644 9.94664 11.6044 10.7066 11.4777L10.96 11.4377C11.16 11.4044 11.4 11.2244 11.4933 11.0377L11.68 10.6577C12.04 9.93108 12.6267 9.93108 12.9867 10.6577Z" stroke="#37B76C" stroke-width="1.21428" stroke-linecap="round" stroke-linejoin="round"/>
</svg>


