<svg width="9" height="11" viewBox="0 0 9 11" fill="none" xmlns="http://www.w3.org/2000/svg">
<path d="M7.2232 1H1.6769C1.46877 1 1.30005 1.16872 1.30005 1.37685C1.30005 2.57621 1.77649 3.72644 2.62457 4.57452L3.1732 5.12315C3.22768 5.17763 3.25492 5.20487 3.27443 5.23103C3.39339 5.39061 3.39339 5.60939 3.27443 5.76897C3.25492 5.79513 3.22768 5.82237 3.1732 5.87685L2.62457 6.42548C1.77649 7.27356 1.30005 8.42379 1.30005 9.62315C1.30005 9.83128 1.46877 10 1.6769 10H7.2232C7.43133 10 7.60005 9.83128 7.60005 9.62315C7.60005 8.42379 7.12361 7.27356 6.27553 6.42548L5.7269 5.87685C5.67242 5.82237 5.64517 5.79513 5.62567 5.76897C5.5067 5.60939 5.5067 5.39061 5.62567 5.23103C5.64517 5.20487 5.67242 5.17763 5.7269 5.12315L6.27553 4.57452C7.12361 3.72644 7.60005 2.57621 7.60005 1.37685C7.60005 1.16872 7.43133 1 7.2232 1Z" stroke="white" stroke-width="0.9" stroke-linecap="round" stroke-linejoin="round"/>
</svg>
