<svg width="20" height="20" viewBox="0 0 20 20" fill="none" xmlns="http://www.w3.org/2000/svg">
<path d="M17.5 4.98335C14.725 4.70835 11.9333 4.56668 9.15 4.56668C7.5 4.56668 5.85 4.65001 4.2 4.81668L2.5 4.98335" stroke="#EA526F" stroke-width="1.25" stroke-linecap="round" stroke-linejoin="round"/>
<path d="M7.08325 4.14167L7.26659 3.05001C7.39992 2.25834 7.49992 1.66667 8.90825 1.66667H11.0916C12.4999 1.66667 12.6083 2.29167 12.7333 3.05834L12.9166 4.14167" stroke="#EA526F" stroke-width="1.25" stroke-linecap="round" stroke-linejoin="round"/>
<path d="M15.7084 7.61668L15.1667 16.0083C15.0751 17.3167 15.0001 18.3334 12.6751 18.3334H7.32508C5.00008 18.3334 4.92508 17.3167 4.83341 16.0083L4.29175 7.61668" stroke="#EA526F" stroke-width="1.25" stroke-linecap="round" stroke-linejoin="round"/>
<path d="M8.6084 13.75H11.3834" stroke="#EA526F" stroke-width="1.25" stroke-linecap="round" stroke-linejoin="round"/>
<path d="M7.91675 10.4167H12.0834" stroke="#EA526F" stroke-width="1.25" stroke-linecap="round" stroke-linejoin="round"/>
</svg>
