<svg width="16" height="17" viewBox="0 0 16 17" fill="none" xmlns="http://www.w3.org/2000/svg">
<path d="M14.6668 10.1111V6.11112C14.6668 2.77779 13.3335 1.44446 10.0002 1.44446H6.00016C2.66683 1.44446 1.3335 2.77779 1.3335 6.11112V10.1111C1.3335 13.4445 2.66683 14.7778 6.00016 14.7778H10.0002C13.3335 14.7778 14.6668 13.4445 14.6668 10.1111Z" stroke="#30323D" stroke-linecap="round" stroke-linejoin="round"/>
<path d="M1.68018 4.8511H14.3202" stroke="#30323D" stroke-linecap="round" stroke-linejoin="round"/>
<path d="M5.68018 1.5177V4.7577" stroke="#30323D" stroke-linecap="round" stroke-linejoin="round"/>
<path d="M10.3198 1.5177V4.4577" stroke="#30323D" stroke-linecap="round" stroke-linejoin="round"/>
<path d="M6 9.39688V8.59688C6 7.57021 6.72667 7.15021 7.61333 7.66355L8.30667 8.06355L9 8.46355C9.88667 8.97688 9.88667 9.81688 9 10.3302L8.30667 10.7302L7.61333 11.1302C6.72667 11.6435 6 11.2235 6 10.1969V9.39688V9.39688Z" stroke="#EA526F" stroke-miterlimit="10" stroke-linecap="round" stroke-linejoin="round"/>
</svg>
